<?xml version="1.0" standalone="no"?><!DOCTYPE svg PUBLIC "-//W3C//DTD SVG 1.1//EN" "http://www.w3.org/Graphics/SVG/1.1/DTD/svg11.dtd"><svg t="1678280800615" class="icon" viewBox="0 0 1024 1024" version="1.1" xmlns="http://www.w3.org/2000/svg" p-id="1153" xmlns:xlink="http://www.w3.org/1999/xlink" width="200" height="200"><path d="M514.0992 939.1616c-236.2368 0-428.4416-192.2048-428.4416-428.4416 0-177.7664 111.8208-339.0464 278.2208-401.3568 21.1456-7.936 44.8 2.816 52.736 24.0128a40.97024 40.97024 0 0 1-24.0128 52.736c-134.6048 50.3808-225.024 180.8384-225.024 324.6592 0 191.0784 155.4432 346.5216 346.5216 346.5216 143.5648 0 273.9712-90.2656 324.4544-224.5632 7.9872-21.1968 31.5904-31.8976 52.736-23.9104 21.1456 7.9872 31.8976 31.5904 23.9104 52.736-62.464 166.0416-223.6416 277.6064-401.1008 277.6064z" fill="#373E51" p-id="1154"></path><path d="M533.248 105.472c-20.3776 0-36.9152 16.5376-36.9152 36.9152v349.184c0 20.3776 16.5376 36.9152 36.9152 36.9152h349.184c20.3776 0 36.9152-16.5376 36.9152-36.9152-0.0512-212.8896-173.2096-386.0992-386.0992-386.0992z" fill="#FFE6D8" p-id="1155"></path><path d="M533.248 105.472c-20.3776 0-36.9152 16.5376-36.9152 36.9152v321.5872h328.8576c20.3776 0 36.9152-16.5376 36.9152-36.9152 0-82.7392-26.2144-159.3856-70.7072-222.2592-68.4544-61.696-158.976-99.328-258.1504-99.328z" fill="#FED9C4" p-id="1156"></path><path d="M768 399.4624c20.3776 0 36.9152-16.5376 36.9152-36.9152a384 384 0 0 0-47.2064-184.832c-63.2832-45.4144-140.8-72.2432-224.4608-72.2432-20.3776 0-36.9152 16.5376-36.9152 36.9152v257.0752H768z" fill="#FEC3A6" p-id="1157"></path><path d="M710.8096 335.0016c20.3776 0 36.9152-16.5376 36.9152-36.9152 0-51.0976-10.0864-99.84-28.16-144.5376a383.92832 383.92832 0 0 0-186.2656-48.0768c-20.3776 0-36.9152 16.5376-36.9152 36.9152v192.5632h214.4256z" fill="#FFB392" p-id="1158"></path><path d="M653.568 270.4896c20.3776 0 36.9152-16.5376 36.9152-36.9152 0-34.6112-4.6592-68.1472-13.2608-100.096a384.05632 384.05632 0 0 0-144.0256-27.9552c-20.3776 0-36.9152 16.5376-36.9152 36.9152v128.1024h157.2864z" fill="#FE966C" p-id="1159"></path><path d="M596.3776 205.9776c20.3776 0 36.9152-16.5376 36.9152-36.9152 0-17.408-1.28-34.56-3.5328-51.3536a384.98816 384.98816 0 0 0-96.512-12.2368c-20.3776 0-36.9152 16.5376-36.9152 36.9152v63.5904h100.0448z" fill="#FF7B4C" p-id="1160"></path><path d="M865.1264 548.5056h-314.624c-40.9088 0-74.24-33.28-74.24-74.24V159.6416c0-40.9088 33.28-74.24 74.24-74.24 214.4256 0 388.864 174.4384 388.864 388.864 0 40.96-33.28 74.24-74.24 74.24z m-306.944-81.92h299.1616c-4.0448-163.1744-135.9872-295.1168-299.1616-299.1616v299.1616z" fill="#373E51" p-id="1161"></path></svg>